<svg xmlns="http://www.w3.org/2000/svg" xmlns:xlink="http://www.w3.org/1999/xlink" version="1.1" x="0px" y="0px" viewBox="0 0 100 125" style="enable-background:new 0 0 100 100; fill: goldenrod" xml:space="preserve"><circle cx="50" cy="49.6" r="6.5"/><path d="M81.6,18C64.1,0.6,35.8,0.6,18.3,18s-17.5,45.8,0,63.2s45.8,17.5,63.2,0S99,35.5,81.6,18z M40.8,40.5  c5.1-5.1,13.3-5.1,18.4,0c5.1,5.1,5.1,13.3,0,18.4s-13.3,5.1-18.4,0S35.7,45.5,40.8,40.5z M76.8,76.5c-14.8,14.8-38.9,14.8-53.7,0  l13.4-13.4c7.4,7.4,19.5,7.4,26.9,0c7.4-7.4,7.4-19.5,0-26.9l13.4-13.4C91.7,37.6,91.7,61.7,76.8,76.5z"/></svg>